# Blender 5.0.0
# www.blender.org
mtllib AAAAAAAAAAAAAAAAAAAAAAAAAAAAAAAAAAA.mtl
o Fy_Snow_Wall
v 3.000000 0.800000 -0.400000
v -3.000000 0.800000 -0.300000
v 3.000000 3.100000 -0.300000
v -3.000000 3.100000 -0.400000
v 3.000000 0.800000 -0.400000
v -3.000000 0.800000 -0.300000
v 3.000000 3.100000 -0.300000
v -3.000000 3.100000 -0.400000
v -0.402144 1.241284 -6.570581
v -0.402144 5.261284 -6.570581
v 5.201041 1.241284 -3.335581
v 5.201041 5.261284 -3.335581
v 5.201041 1.241284 3.134419
v 5.201041 5.261284 3.134419
v -0.402144 1.241284 6.369419
v -0.402144 5.261284 6.369419
v -6.005329 1.241284 3.134419
v -6.005329 5.261284 3.134419
v -6.005329 1.241284 -3.335581
v -6.005329 5.261284 -3.335581
v 5.201041 5.261284 -3.335581
v -0.402144 5.261284 -6.570581
v 5.201041 5.261284 3.134419
v -0.402144 5.261284 6.369419
v -6.005329 5.261284 3.134419
v -6.005329 5.261284 -3.335581
v 5.876118 7.734231 -3.725337
v -0.402144 7.734231 -7.350094
v 5.876118 7.734231 3.524175
v -0.402144 7.734231 7.148932
v -6.680406 7.734231 3.524175
v -6.680406 7.734231 -3.725337
v -0.402144 7.505922 -6.570581
v 5.201041 7.505922 -3.335581
v -6.005329 7.505922 -3.335581
v -0.402144 7.505922 6.369419
v -6.005329 7.505922 3.134419
v 5.201041 7.505922 3.134419
v -0.402144 7.505922 -6.570581
v 5.201041 7.505922 -3.335581
v -6.005329 7.505922 -3.335581
v -0.402144 7.505922 6.369419
v -6.005329 7.505922 3.134419
v 5.201041 7.505922 3.134419
v 5.201041 7.734231 3.134419
v 5.201041 7.734231 -3.335581
v 5.201041 7.505922 -3.335581
v 5.201041 7.505922 3.134419
v 5.201041 7.734231 3.134419
v 5.201041 7.734231 -3.335581
v 5.201041 7.734231 3.134419
v 5.201041 7.734231 -3.335581
v -0.402144 7.734231 6.369419
v 5.201041 7.734231 3.134419
v -0.402144 7.505922 6.369419
v 5.201041 7.505922 3.134419
v -0.402144 7.734231 6.369419
v 5.201041 7.734231 3.134419
v -0.402144 7.505922 6.369419
v 5.201041 7.505922 3.134419
v 5.201041 7.734231 -3.335581
v -0.402144 7.734231 -6.570581
v -0.402144 7.505922 -6.570581
v 5.201041 7.505922 -3.335581
v 5.201041 7.734231 -3.335581
v -0.402144 7.734231 -6.570581
v 5.201041 7.734231 -3.335581
v -0.402144 7.734231 -6.570581
v 5.201041 7.734231 -3.299895
v -0.402144 7.734231 -6.534895
v 5.201041 7.734231 -3.299895
v -0.402144 7.734231 -6.534895
v -6.005329 7.734231 3.134419
v -6.005329 7.734231 -3.335581
v -0.402144 1.241284 -6.570581
v 5.201041 1.241284 -3.335581
v 5.201041 1.241284 3.134419
v -0.402144 1.241284 6.369419
v -6.005329 1.241284 3.134419
v -6.005329 1.241284 -3.335581
v -0.402144 1.241284 -7.035887
v 5.604007 1.241284 -3.568234
v 5.604007 1.241284 3.367072
v -0.402144 1.241284 6.834725
v -6.408295 1.241284 3.367072
v -6.408295 1.241284 -3.568234
v -0.402144 1.643271 -7.035887
v 5.604007 1.643271 -3.568234
v 5.604007 1.643271 3.367072
v -0.402144 1.643271 6.834725
v -6.408295 1.643271 3.367072
v -6.408295 1.643271 -3.568234
v -0.402144 1.643271 -6.042202
v 4.743451 1.643271 -3.071392
v 4.743451 1.643271 2.870230
v -0.402144 1.643271 5.841041
v -5.547739 1.643271 2.870230
v -5.547739 1.643271 -3.071392
vn 0.5000 -0.0000 -0.8660
vn 1.0000 -0.0000 -0.0000
vn 0.5000 -0.0000 0.8660
vn -0.5000 -0.0000 0.8660
vn -0.0000 1.0000 -0.0000
vn -1.0000 -0.0000 -0.0000
vn -0.5000 -0.0000 -0.8660
vn -0.1602 -0.9473 -0.2774
vn -0.1602 -0.9473 0.2774
vn -0.3204 -0.9473 -0.0000
vn -0.0000 -1.0000 -0.0000
vt 1.000000 0.500000
vt 1.000000 1.000000
vt 0.833333 1.000000
vt 0.833333 0.500000
vt 0.666667 1.000000
vt 0.666667 0.500000
vt 0.500000 1.000000
vt 0.500000 0.500000
vt 0.333333 1.000000
vt 0.333333 0.500000
vt 0.166667 1.000000
vt 0.166667 0.500000
vt -0.000000 1.000000
vt -0.000000 0.500000
vt 0.457846 0.370000
vt 0.250000 0.490000
vt 0.042154 0.370000
vt 0.042154 0.130000
vt 0.250000 0.010000
vt 0.457846 0.130000
vt 0.166667 1.000000
vt 0.750000 0.490000
vt 0.957846 0.370000
vt 0.957846 0.130000
vt 0.750000 0.010000
vt 0.542154 0.130000
vt 0.542154 0.370000
s 0
usemtl Snow_Wall_Base
f 9/1/1 10/2/1 12/3/1 11/4/1
f 11/4/2 12/3/2 14/5/2 13/6/2
f 13/6/3 14/5/3 16/7/3 15/8/3
f 15/8/4 16/7/4 18/9/4 17/10/4
f 14/5/5 12/3/5 21/3/5 23/5/5
f 17/10/6 18/9/6 20/11/6 19/12/6
f 19/12/7 20/11/7 10/13/7 9/14/7
f 11/4/5 13/6/5 77/6/5 76/4/5
f 33/13/2 28/13/2 62/13/2 63/13/2
f 20/11/5 18/9/5 25/9/5 26/11/5
f 12/3/5 10/2/5 22/2/5 21/3/5
f 16/7/5 14/5/5 23/5/5 24/7/5
f 10/13/5 20/11/5 26/11/5 22/13/5
f 18/9/5 16/7/5 24/7/5 25/9/5
f 27/15/5 28/16/5 32/17/5 31/18/5 30/19/5 29/20/5
f 33/13/8 35/21/8 32/11/8 28/13/8
f 37/9/9 36/7/9 30/7/9 31/9/9
f 29/5/1 38/5/1 48/5/1 45/5/1
f 35/21/10 37/9/10 31/9/10 32/11/10
f 38/5/4 29/5/4 54/5/4 56/5/4
f 24/7/3 23/5/3 38/5/3 36/7/3
f 26/11/6 25/9/6 37/9/6 35/21/6
f 23/5/2 21/3/2 34/3/2 38/5/2
f 25/9/4 24/7/4 36/7/4 37/9/4
f 22/13/7 26/11/7 35/21/7 33/13/7
f 21/3/1 22/2/1 33/2/1 34/3/1
f 37/9/5 36/7/5 42/7/5 43/9/5
f 35/21/5 37/9/5 43/9/5 41/21/5
f 33/13/5 35/21/5 41/21/5 39/13/5
f 38/5/5 34/3/5 40/3/5 44/5/5
f 36/7/5 38/5/5 44/5/5 42/7/5
f 34/3/5 33/2/5 39/2/5 40/3/5
f 48/5/2 47/3/2 46/3/2 45/5/2
f 34/3/3 27/3/3 46/3/3 47/3/3
f 38/5/5 34/3/5 47/3/5 48/5/5
f 29/5/5 45/5/5 51/5/5 49/5/5
f 50/15/5 49/20/5 51/20/5 52/15/5
f 46/3/5 27/3/5 50/3/5 52/3/5
f 45/5/5 46/3/5 52/3/5 51/5/5
f 27/15/11 29/20/11 49/20/11 50/15/11
f 56/5/5 54/5/5 58/5/5 60/5/5
f 29/20/11 30/19/11 53/19/11 54/20/11
f 30/7/2 36/7/2 55/7/2 53/7/2
f 36/7/5 38/5/5 56/5/5 55/7/5
f 59/7/3 60/5/3 58/5/3 57/7/3
f 54/20/5 53/19/5 57/19/5 58/20/5
f 55/7/5 56/5/5 60/5/5 59/7/5
f 53/7/5 55/7/5 59/7/5 57/7/5
f 64/3/1 63/2/1 62/2/1 61/3/1
f 27/3/7 34/3/7 64/3/7 61/3/7
f 62/13/5 28/13/5 66/13/5 68/13/5
f 34/3/5 33/2/5 63/2/5 64/3/5
f 65/3/5 67/3/5 71/3/5 69/3/5
f 61/3/5 62/2/5 68/2/5 67/3/5
f 28/16/11 27/15/11 65/15/11 66/16/11
f 27/3/5 61/3/5 67/3/5 65/3/5
f 70/16/5 69/15/5 71/15/5 72/16/5
f 67/3/5 68/2/5 72/2/5 71/3/5
f 68/13/5 66/13/5 70/13/5 72/13/5
f 66/16/11 65/15/11 69/15/11 70/16/11
f 32/17/5 31/18/5 73/18/5 74/17/5
f 79/10/5 80/12/5 86/12/5 85/10/5
f 17/10/5 19/12/5 80/12/5 79/10/5
f 9/1/5 11/4/5 76/4/5 75/1/5
f 13/6/5 15/8/5 78/8/5 77/6/5
f 19/12/5 9/14/5 75/14/5 80/12/5
f 15/8/5 17/10/5 79/10/5 78/8/5
f 84/8/1 85/10/1 91/10/1 90/8/1
f 77/6/5 78/8/5 84/8/5 83/6/5
f 75/1/5 76/4/5 82/4/5 81/1/5
f 80/12/5 75/14/5 81/14/5 86/12/5
f 78/8/5 79/10/5 85/10/5 84/8/5
f 76/4/5 77/6/5 83/6/5 82/4/5
f 89/6/11 90/8/11 96/8/11 95/6/11
f 82/4/6 83/6/6 89/6/6 88/4/6
f 85/10/2 86/12/2 92/12/2 91/10/2
f 83/6/7 84/8/7 90/8/7 89/6/7
f 81/1/4 82/4/4 88/4/4 87/1/4
f 86/12/3 81/14/3 87/14/3 92/12/3
f 93/22/11 94/23/11 95/24/11 96/25/11 97/26/11 98/27/11
f 87/1/11 88/4/11 94/4/11 93/1/11
f 92/12/11 87/14/11 93/14/11 98/12/11
f 90/8/11 91/10/11 97/10/11 96/8/11
f 88/4/11 89/6/11 95/6/11 94/4/11
f 91/10/11 92/12/11 98/12/11 97/10/11
l 1 5
l 2 6
l 3 7
l 4 8
