# Blender 4.5.4 LTS
# www.blender.org
mtllib peretesus.mtl
o Cube
v -9.703027 5.174692 4.479887
v -9.703027 14.134467 3.398470
v -9.703027 5.174692 -0.309063
v -9.703027 14.134467 -0.309063
v 9.428454 5.174692 4.479887
v 9.428454 14.134467 3.398470
v 9.428454 5.174692 -0.309063
v 9.428454 14.134467 -0.309063
v -9.703027 12.691329 4.479887
v -9.703027 12.691329 -0.309063
v 9.428454 12.691329 -0.309063
v 9.428454 12.691329 4.479887
vn -1.0000 -0.0000 -0.0000
vn -0.0000 -0.0000 -1.0000
vn 1.0000 -0.0000 -0.0000
vn -0.0000 0.5997 0.8002
vn -0.0000 -1.0000 -0.0000
vn -0.0000 1.0000 -0.0000
vn -0.0000 -0.0000 1.0000
vt 0.584733 0.000000
vt 0.625000 0.000000
vt 0.625000 0.250000
vt 0.584733 0.250000
vt 0.625000 0.500000
vt 0.584733 0.500000
vt 0.625000 0.750000
vt 0.584733 0.750000
vt 0.625000 1.000000
vt 0.584733 1.000000
vt 0.125000 0.500000
vt 0.375000 0.500000
vt 0.375000 0.750000
vt 0.125000 0.750000
vt 0.875000 0.500000
vt 0.875000 0.750000
vt 0.375000 1.000000
vt 0.375000 0.250000
vt 0.375000 0.000000
s 0
f 9/1/1 2/2/1 4/3/1 10/4/1
f 10/4/2 4/3/2 8/5/2 11/6/2
f 11/6/3 8/5/3 6/7/3 12/8/3
f 12/8/4 6/7/4 2/9/4 9/10/4
f 3/11/5 7/12/5 5/13/5 1/14/5
f 8/5/6 4/15/6 2/16/6 6/7/6
f 5/13/7 12/8/7 9/10/7 1/17/7
f 7/12/3 11/6/3 12/8/3 5/13/3
f 3/18/2 10/4/2 11/6/2 7/12/2
f 1/19/1 9/1/1 10/4/1 3/18/1
